<svg width="43" height="49" viewBox="0 0 43 49" fill="none" xmlns="http://www.w3.org/2000/svg">
<path fill-rule="evenodd" clip-rule="evenodd" d="M34.3843 15.0046L21.25 4.07182L8.1159 15.0045C8.5779 14.9998 9.0636 14.9999 9.57203 14.9999L9.7 14.9999L32.915 14.9999C33.4282 14.9999 33.9183 14.9998 34.3843 15.0046ZM3.54167 24.6248V21.8256C3.561 21.3883 3.5893 20.9987 3.63073 20.6467C3.75605 19.582 3.98053 19.0915 4.25713 18.7752C4.50811 18.4883 4.86124 18.2719 5.70296 18.1428C6.61109 18.0036 7.83598 17.9999 9.7 17.9999H19.811C19.7713 18.1346 19.75 18.2772 19.75 18.4248L19.75 26.763C17.5254 27.4115 15.9 29.4658 15.9 31.8998C15.9 34.3338 17.5254 36.3882 19.75 37.0367L19.75 45.3748C19.75 45.404 19.7508 45.433 19.7525 45.4618H4.90805C4.59748 45.3435 4.4087 45.1959 4.25713 45.0226L4.25566 45.021C3.98047 44.7073 3.75606 44.2189 3.63072 43.1544C3.5893 42.8027 3.561 42.4132 3.54167 41.9759V39.1748H6.8125C7.72087 39.1748 8.59203 38.814 9.23434 38.1717C9.87665 37.5294 10.2375 36.6582 10.2375 35.7498V28.0498C10.2375 27.1415 9.87665 26.2703 9.23434 25.628C8.59203 24.9857 7.72087 24.6248 6.8125 24.6248H3.54167ZM3.54167 36.1748V27.6248H6.8125C6.92522 27.6248 7.03332 27.6696 7.11302 27.7493C7.19272 27.829 7.2375 27.9371 7.2375 28.0498V35.7498C7.2375 35.8626 7.19273 35.9707 7.11302 36.0504C7.03332 36.1301 6.92522 36.1748 6.8125 36.1748H3.54167ZM37.5919 45.4618H22.7475C22.7492 45.433 22.75 45.404 22.75 45.3748L22.75 37.0367C24.9746 36.3882 26.6 34.3338 26.6 31.8998C26.6 29.4658 24.9746 27.4115 22.75 26.763L22.75 18.4248C22.75 18.2772 22.7287 18.1346 22.689 17.9999H32.8C34.6636 17.9999 35.8885 18.004 36.7964 18.1437C37.6379 18.2731 37.9915 18.4898 38.2429 18.7772L38.2443 18.7788C38.5195 19.0925 38.7439 19.5808 38.8693 20.6454C38.9107 20.9971 38.939 21.3866 38.9583 21.8238V24.6248H35.6875C34.7791 24.6248 33.908 24.9857 33.2657 25.628C32.6233 26.2703 32.2625 27.1415 32.2625 28.0498V35.7498C32.2625 36.6582 32.6233 37.5294 33.2657 38.1717C33.908 38.814 34.7791 39.1748 35.6875 39.1748H38.9583V41.9723C38.939 42.4096 38.9107 42.7992 38.8693 43.1511C38.744 44.2159 38.5195 44.7064 38.2429 45.0226C38.0913 45.1959 37.9025 45.3435 37.5919 45.4618ZM38.9583 27.6248V36.1748H35.6875C35.5748 36.1748 35.4667 36.1301 35.387 36.0504C35.3073 35.9707 35.2625 35.8626 35.2625 35.7498V28.0498C35.2625 27.9371 35.3073 27.829 35.387 27.7493C35.4667 27.6696 35.5748 27.6248 35.6875 27.6248H38.9583ZM20.1167 0.409769L0.6375 16.6254C0.438063 16.7913 0.277581 16.9991 0.167416 17.2339C0.0572517 17.4686 9.73253e-05 17.7248 0 17.9841V47.2309C0 47.7001 0.18657 48.1501 0.518665 48.4818C0.850761 48.8136 1.30118 49 1.77083 49H40.7292C41.1988 49 41.6492 48.8136 41.9813 48.4818C42.3134 48.1501 42.5 47.7001 42.5 47.2309V17.9841C42.4999 17.7248 42.4427 17.4686 42.3326 17.2339C42.2224 16.9991 42.0619 16.7913 41.8625 16.6254L22.3833 0.409769C22.0651 0.144993 21.6641 0 21.25 0C20.8359 0 20.4349 0.144993 20.1167 0.409769ZM18.9 31.8998C18.9 30.602 19.9521 29.5498 21.25 29.5498C22.5479 29.5498 23.6 30.602 23.6 31.8998C23.6 33.1977 22.5479 34.2498 21.25 34.2498C19.9521 34.2498 18.9 33.1977 18.9 31.8998Z" fill="#1D6D0A"/>
</svg>
